<mxfile host="app.diagrams.net" modified="2023-08-27T16:31:52.759Z" agent="Mozilla/5.0 (Windows NT 10.0; Win64; x64) AppleWebKit/537.36 (KHTML, like Gecko) Chrome/116.0.0.0 Safari/537.36" etag="2SX1tbM6gn-FWq3-oxwQ" version="21.6.9" type="github">
  <diagram name="Trang-1" id="Esvz7Nf3lxYAxXCIHt76">
    <mxGraphModel dx="443" dy="571" grid="1" gridSize="10" guides="1" tooltips="1" connect="1" arrows="1" fold="1" page="1" pageScale="1" pageWidth="827" pageHeight="1169" math="0" shadow="0">
      <root>
        <mxCell id="0" />
        <mxCell id="1" parent="0" />
      </root>
    </mxGraphModel>
  </diagram>
</mxfile>
